# xmcd
#
# Track frame offsets:
#  150
#  18765
#  37587
#  50568
#  63720
#  77452
#  96438
#  107668
#  122135
#  136627
#  149890
#  162601
#  175520
#  191252
#  203308
#  217619
#  232130
#
# Disc length: 3273 seconds
#
# Revision: 0
# Processed by: cddbd v1.5.1PL2 Copyright (c) Steve Scherf et al.
# Submitted via: Collectorz.com_Music_Collector 6.9
#
DISCID=dd0cc711
DTITLE=Don Williams - The best of
DYEAR=1900
DGENRE=Country
TTITLE0=I believe in you
TTITLE1=Lord, I hope this day is good
TTITLE2=Lay down beside me
TTITLE3=Mistakes
TTITLE4=Miracles
TTITLE5=Good old boys like me
TTITLE6=It just be love
TTITLE7=Listen to the radio
TTITLE8=If Hollywood don't need you
TTITLE9=Love over again
TTITLE10=You're my best friend
TTITLE11=Lay down beside me
TTITLE12=Till the rivers all run dry
TTITLE13=Ghost story
TTITLE14=Amanda
TTITLE15=Tulsa time
TTITLE16=The shelter of your eyes
EXTD=
EXTT0=
EXTT1=
EXTT2=
EXTT3=
EXTT4=
EXTT5=
EXTT6=
EXTT7=
EXTT8=
EXTT9=
EXTT10=
EXTT11=
EXTT12=
EXTT13=
EXTT14=
EXTT15=
EXTT16=
PLAYORDER=
